<?xml version="1.0" encoding="UTF-8" standalone="no"?> <svg xmlns="http://www.w3.org/2000/svg" viewBox="0 0 48 48"><title>Sofa</title><g id="Sofa"><path d="M41.5,40H38a2.006,2.006,0,0,0,2,2h1a2.006,2.006,0,0,0,2-2v-.21A5.33,5.33,0,0,1,41.5,40Z"/><path d="M6.5,40A5.33,5.33,0,0,1,5,39.79V40a2.006,2.006,0,0,0,2,2H8a2.006,2.006,0,0,0,2-2Z"/><path d="M36,6H12a7.008,7.008,0,0,0-7,7v2a7.008,7.008,0,0,1,7,7v1.56A3.906,3.906,0,0,1,14,23H34a3.906,3.906,0,0,1,2,.56V22a7.008,7.008,0,0,1,7-7V13A7.008,7.008,0,0,0,36,6ZM16,19a1,1,0,1,1,1-1A1,1,0,0,1,16,19Zm0-6a1,1,0,1,1,1-1A1,1,0,0,1,16,13Zm8,6a1,1,0,1,1,1-1A1,1,0,0,1,24,19Zm0-6a1,1,0,1,1,1-1A1,1,0,0,1,24,13Zm8,6a1,1,0,1,1,1-1A1,1,0,0,1,32,19Zm0-6a1,1,0,1,1,1-1A1,1,0,0,1,32,13Z"/><path d="M36,30V27a2,2,0,0,0-2-2H14a2,2,0,0,0-2,2v3Z"/><path d="M42.509,17.023A5.145,5.145,0,0,0,38,22.215V30.93A1.07,1.07,0,0,1,36.93,32H11.07A1.07,1.07,0,0,1,10,30.93V22.215a5.145,5.145,0,0,0-4.509-5.192A5,5,0,0,0,3,26.578V34.5A3.5,3.5,0,0,0,6.5,38h35A3.5,3.5,0,0,0,45,34.5V26.578a5,5,0,0,0-2.491-9.555Z"/></g></svg>